<?xml version="1.0" encoding="utf-8"?>
<svg viewBox="0 0 287 80" xmlns="http://www.w3.org/2000/svg" xmlns:bx="https://boxy-svg.com">
  <defs>
    <style bx:fonts="Baloo 2">@import url(https://fonts.googleapis.com/css2?family=Baloo+2%3Aital%2Cwght%400%2C400..800&amp;display=swap);</style>
    <bx:grid x="0" y="0" width="190" height="80"/>
    <radialGradient id="gradient-2" gradientUnits="userSpaceOnUse" cx="152.286" cy="126.898" r="330" gradientTransform="matrix(0.638467, -1.091841, 1.097297, 0.641658, 52.727183, 218.434182)">
      <stop offset="0" style="stop-color: rgb(0, 170, 237);"/>
      <stop offset="1" style="stop-color: rgb(0, 145, 202);"/>
    </radialGradient>
    <linearGradient id="gradient-3" gradientUnits="userSpaceOnUse" x1="330" y1="0" x2="330" y2="660" gradientTransform="matrix(0.980745, -0.195296, 0.195753, 0.983035, -58.663244, 70.697931)">
      <stop offset="0" style="stop-color: rgb(152, 226, 255);"/>
      <stop offset="1" style="stop-color: rgb(78, 193, 239);"/>
    </linearGradient>
  </defs>
  <g transform="matrix(0.341978, 0, 0, 0.341978, 9.524829, 7.722592)">
    <g transform="matrix(0.273894, -0.073389, 0.073389, 0.273894, -233.282547, -235.615341)" style="transform-origin: 330px 330px;">
      <title>Logomark</title>
      <circle style="fill: url(&quot;#gradient-2&quot;); stroke: url(&quot;#gradient-3&quot;); stroke-width: 10.3125px;" cx="330" cy="330" r="330">
        <title>Main circle</title>
      </circle>
      <g transform="matrix(1, 0, 0, 1, 76.346565, 87.309868)">
        <title>Inner elements</title>
        <path d="M 254.298 60.603 L 411.612 151.429 L 411.612 333.079 L 254.298 423.905 L 96.984 333.08 L 96.984 151.429 Z" style="fill: none; stroke: rgb(212, 243, 255); stroke-width: 30.9374px;" bx:shape="n-gon 254.298 242.254 181.651 181.651 6 0 1@eafcc436"/>
        <line style="fill: rgb(216, 216, 216); stroke: rgb(212, 243, 255); stroke-width: 30.9374px;" x1="254.661" y1="72.899" x2="254.661" y2="-35.595"/>
        <circle style="stroke: rgb(212, 243, 255); fill: rgb(78, 194, 239); stroke-width: 30.9374px;" cx="254.661" cy="58.259" r="42.5"/>
        <line style="fill: rgb(216, 216, 216); stroke: rgb(212, 243, 255); transform-origin: 442.48px 126.985px; stroke-width: 30.9374px;" x1="422.321" y1="175.831" x2="476.568" y2="81.872" transform="matrix(0.866025, 0.5, -0.5, 0.866025, 0, -0.000001)"/>
        <circle style="stroke: rgb(212, 243, 255); fill: rgb(78, 194, 239); transform-box: fill-box; transform-origin: 50% 50%; stroke-width: 30.9374px;" cx="257.593" cy="8.852" r="42.5" transform="matrix(0.5, 0.866025, -0.866025, 0.5, 155.686195, 143.033507)"/>
        <line style="fill: rgb(216, 216, 216); stroke: rgb(212, 243, 255); transform-origin: 450.144px 346.898px; stroke-width: 30.9374px;" x1="429.985" y1="395.744" x2="484.231" y2="301.785" transform="matrix(0, 1, -1, 0, -0.000028, -0.000014)"/>
        <circle style="stroke: rgb(212, 243, 255); fill: rgb(78, 194, 239); transform-origin: 257.593px 8.852px; stroke-width: 30.9374px;" cx="257.593" cy="8.852" r="42.5" transform="matrix(-0.5, 0.866025, -0.866025, -0.5, 156.382853, 325.207039)"/>
        <line style="fill: rgb(216, 216, 216); stroke: rgb(212, 243, 255); transform-origin: 261.118px 464.067px; stroke-width: 30.9374px;" x1="240.959" y1="512.913" x2="295.206" y2="418.954" transform="matrix(-0.866025, 0.5, -0.5, -0.866025, -0.000027, 0.000076)"/>
        <circle style="stroke: rgb(212, 243, 255); fill: rgb(78, 194, 239); transform-origin: -254.154px -426.328px; stroke-width: 30.9374px;" cx="-254.154" cy="-426.328" r="42.5" transform="matrix(-1, 0, 0, -1, 508.307953, 852.655701)"/>
        <line style="fill: rgb(216, 216, 216); stroke: rgb(212, 243, 255); transform-origin: 66.142px 361.023px; stroke-width: 30.9374px;" x1="45.983" y1="409.868" x2="100.23" y2="315.91" transform="matrix(-0.866025, -0.5, 0.5, -0.866025, -0.000001, -0.000034)"/>
        <circle style="stroke: rgb(212, 243, 255); fill: rgb(78, 194, 239); transform-origin: 257.593px 8.852px; stroke-width: 30.9374px;" cx="257.593" cy="8.852" r="42.5" transform="matrix(-0.5, -0.866025, 0.866025, -0.5, -162.249325, 327.268597)"/>
        <line style="fill: rgb(216, 216, 216); stroke: rgb(212, 243, 255); transform-origin: 59.179px 136.68px; stroke-width: 30.9374px;" x1="39.02" y1="185.526" x2="93.267" y2="91.567" transform="matrix(0, -1, 1, 0, -0.000023, 0)"/>
        <circle style="stroke: rgb(212, 243, 255); fill: rgb(78, 194, 239); transform-origin: 571.707px 323.849px; stroke-width: 30.9374px;" cx="571.707" cy="323.849" r="42.5" transform="matrix(0.5, -0.866025, 0.866025, 0.5, -476.364784, -174.331767)"/>
      </g>
    </g>
    <g transform="matrix(1, 0, 0, 1, -3.848826, -4.564161)" style="">
      <title>Text</title>
      <text style="font-family: &quot;Baloo 2&quot;; font-size: 81.9px; font-weight: 300; line-height: 191.825px; white-space: pre;" x="216.363" y="77.257"><title>easy</title>easy</text>
      <text style="font-family: &quot;Baloo 2&quot;; font-size: 81.9px; font-weight: 600; line-height: 191.825px; white-space: pre;" x="216.468" y="159.731"><title>crystallography</title>crystallography</text>
    </g>
  </g>
</svg>