<?xml version="1.0" encoding="utf-8"?>
<svg viewBox="0 0 267 65" xmlns="http://www.w3.org/2000/svg" xmlns:bx="https://boxy-svg.com" height="65px">
  <defs>
    <bx:grid x="0" y="0" width="190" height="80"/>
    <radialGradient id="gradient-2" gradientUnits="userSpaceOnUse" cx="152.286" cy="126.898" r="330" gradientTransform="matrix(0.638467, -1.091841, 1.097297, 0.641658, 52.727183, 218.434182)">
      <stop offset="0" style="stop-color: rgb(0, 170, 237);"/>
      <stop offset="1" style="stop-color: rgb(0, 145, 202);"/>
    </radialGradient>
    <linearGradient id="gradient-3" gradientUnits="userSpaceOnUse" x1="330" y1="0" x2="330" y2="660" gradientTransform="matrix(0.980745, -0.195296, 0.195753, 0.983035, -58.663244, 70.697931)">
      <stop offset="0" style="stop-color: rgb(152, 226, 255);"/>
      <stop offset="1" style="stop-color: rgb(78, 193, 239);"/>
    </linearGradient>
  </defs>
  <g transform="matrix(0.341978, 0, 0, 0.341978, -0.583402, 0.222525)">
    <g transform="matrix(0.273894, -0.073389, 0.073389, 0.273894, -233.282547, -235.615341)" style="transform-origin: 330px 330px;">
      <title>Logomark</title>
      <circle style="fill: url(&quot;#gradient-2&quot;); stroke: url(&quot;#gradient-3&quot;); stroke-width: 10.3125px;" cx="330" cy="330" r="330">
        <title>Main circle</title>
      </circle>
      <g transform="matrix(1, 0, 0, 1, 76.346565, 87.309868)">
        <title>Inner elements</title>
        <path d="M 254.298 60.603 L 411.612 151.429 L 411.612 333.079 L 254.298 423.905 L 96.984 333.08 L 96.984 151.429 Z" style="fill: none; stroke: rgb(212, 243, 255); stroke-width: 30.9374px;" bx:shape="n-gon 254.298 242.254 181.651 181.651 6 0 1@eafcc436"/>
        <line style="fill: rgb(216, 216, 216); stroke: rgb(212, 243, 255); stroke-width: 30.9374px;" x1="254.661" y1="72.899" x2="254.661" y2="-35.595"/>
        <circle style="stroke: rgb(212, 243, 255); fill: rgb(78, 194, 239); stroke-width: 30.9374px;" cx="254.661" cy="58.259" r="42.5"/>
        <line style="fill: rgb(216, 216, 216); stroke: rgb(212, 243, 255); transform-origin: 442.48px 126.985px; stroke-width: 30.9374px;" x1="422.321" y1="175.831" x2="476.568" y2="81.872" transform="matrix(0.866025, 0.5, -0.5, 0.866025, 0, -0.000001)"/>
        <circle style="stroke: rgb(212, 243, 255); fill: rgb(78, 194, 239); transform-box: fill-box; transform-origin: 50% 50%; stroke-width: 30.9374px;" cx="257.593" cy="8.852" r="42.5" transform="matrix(0.5, 0.866025, -0.866025, 0.5, 155.686195, 143.033507)"/>
        <line style="fill: rgb(216, 216, 216); stroke: rgb(212, 243, 255); transform-origin: 450.144px 346.898px; stroke-width: 30.9374px;" x1="429.985" y1="395.744" x2="484.231" y2="301.785" transform="matrix(0, 1, -1, 0, -0.000028, -0.000014)"/>
        <circle style="stroke: rgb(212, 243, 255); fill: rgb(78, 194, 239); transform-origin: 257.593px 8.852px; stroke-width: 30.9374px;" cx="257.593" cy="8.852" r="42.5" transform="matrix(-0.5, 0.866025, -0.866025, -0.5, 156.382853, 325.207039)"/>
        <line style="fill: rgb(216, 216, 216); stroke: rgb(212, 243, 255); transform-origin: 261.118px 464.067px; stroke-width: 30.9374px;" x1="240.959" y1="512.913" x2="295.206" y2="418.954" transform="matrix(-0.866025, 0.5, -0.5, -0.866025, -0.000027, 0.000076)"/>
        <circle style="stroke: rgb(212, 243, 255); fill: rgb(78, 194, 239); transform-origin: -254.154px -426.328px; stroke-width: 30.9374px;" cx="-254.154" cy="-426.328" r="42.5" transform="matrix(-1, 0, 0, -1, 508.307953, 852.655701)"/>
        <line style="fill: rgb(216, 216, 216); stroke: rgb(212, 243, 255); transform-origin: 66.142px 361.023px; stroke-width: 30.9374px;" x1="45.983" y1="409.868" x2="100.23" y2="315.91" transform="matrix(-0.866025, -0.5, 0.5, -0.866025, -0.000001, -0.000034)"/>
        <circle style="stroke: rgb(212, 243, 255); fill: rgb(78, 194, 239); transform-origin: 257.593px 8.852px; stroke-width: 30.9374px;" cx="257.593" cy="8.852" r="42.5" transform="matrix(-0.5, -0.866025, 0.866025, -0.5, -162.249325, 327.268597)"/>
        <line style="fill: rgb(216, 216, 216); stroke: rgb(212, 243, 255); transform-origin: 59.179px 136.68px; stroke-width: 30.9374px;" x1="39.02" y1="185.526" x2="93.267" y2="91.567" transform="matrix(0, -1, 1, 0, -0.000023, 0)"/>
        <circle style="stroke: rgb(212, 243, 255); fill: rgb(78, 194, 239); transform-origin: 571.707px 323.849px; stroke-width: 30.9374px;" cx="571.707" cy="323.849" r="42.5" transform="matrix(0.5, -0.866025, 0.866025, 0.5, -476.364784, -174.331767)"/>
      </g>
    </g>
    <g transform="matrix(1, 0, 0, 1, -3.848826, -4.564161)" style="">
      <title>Text</title>
      <path d="M 224.881 62.515 L 224.553 57.355 L 249.287 53.997 Q 248.959 49.493 246.175 46.585 Q 243.39 43.678 238.476 43.678 Q 233.398 43.678 230.081 47.323 Q 226.764 50.967 226.764 57.765 L 226.764 59.567 Q 227.338 66.119 231.064 69.517 Q 234.791 72.916 241.261 72.916 Q 244.7 72.916 247.485 71.77 Q 250.27 70.623 251.908 69.313 Q 252.809 69.886 253.341 70.664 Q 253.873 71.442 253.873 72.425 Q 253.873 73.981 252.112 75.332 Q 250.352 76.684 247.444 77.503 Q 244.537 78.322 240.933 78.322 Q 234.627 78.322 229.999 76.029 Q 225.372 73.735 222.874 69.19 Q 220.376 64.644 220.376 58.092 Q 220.376 53.424 221.727 49.78 Q 223.079 46.135 225.495 43.596 Q 227.911 41.057 231.269 39.706 Q 234.627 38.355 238.558 38.355 Q 243.554 38.355 247.362 40.484 Q 251.171 42.613 253.341 46.422 Q 255.511 50.23 255.511 55.144 Q 255.511 56.946 254.692 57.724 Q 253.873 58.502 252.399 58.666 Z M 278.516 72.998 Q 281.956 72.998 284.208 72.302 Q 286.461 71.606 287.443 70.951 L 287.443 59.075 L 277.288 60.14 Q 273.029 60.468 270.982 62.024 Q 268.934 63.58 268.934 66.528 Q 268.934 69.558 271.35 71.278 Q 273.766 72.998 278.516 72.998 Z M 278.434 38.355 Q 285.56 38.355 289.737 41.549 Q 293.914 44.743 293.914 51.622 L 293.914 71.033 Q 293.914 72.834 293.217 73.776 Q 292.521 74.718 291.129 75.537 Q 289.163 76.602 285.887 77.503 Q 282.611 78.404 278.516 78.404 Q 270.818 78.404 266.6 75.373 Q 262.382 72.343 262.382 66.61 Q 262.382 61.287 265.945 58.461 Q 269.507 55.635 275.814 55.062 L 287.443 53.916 L 287.443 51.622 Q 287.443 47.527 284.986 45.644 Q 282.529 43.76 278.353 43.76 Q 274.995 43.76 271.923 44.743 Q 268.852 45.726 266.477 46.954 Q 265.822 46.381 265.29 45.603 Q 264.757 44.825 264.757 44.006 Q 264.757 41.876 267.132 40.73 Q 269.344 39.583 272.251 38.969 Q 275.158 38.355 278.434 38.355 Z M 332.573 67.183 Q 332.573 72.425 328.723 75.373 Q 324.874 78.322 317.585 78.322 Q 311.36 78.322 307.429 76.397 Q 303.498 74.472 303.498 72.179 Q 303.498 71.196 304.03 70.255 Q 304.563 69.313 305.627 68.739 Q 307.839 70.296 310.787 71.606 Q 313.736 72.916 317.503 72.916 Q 326.021 72.916 326.021 67.183 Q 326.021 64.808 324.587 63.293 Q 323.154 61.778 320.369 61.123 L 313.572 59.321 Q 308.576 58.092 306.283 55.513 Q 303.989 52.933 303.989 49.083 Q 303.989 44.743 307.511 41.549 Q 311.033 38.355 318.24 38.355 Q 322.089 38.355 324.956 39.133 Q 327.822 39.911 329.419 41.18 Q 331.016 42.45 331.016 43.924 Q 331.016 44.988 330.484 45.807 Q 329.952 46.626 329.051 47.036 Q 328.068 46.381 326.553 45.603 Q 325.038 44.825 322.99 44.292 Q 320.943 43.76 318.486 43.76 Q 314.882 43.76 312.671 45.152 Q 310.46 46.545 310.46 49.083 Q 310.46 50.885 311.729 52.237 Q 312.998 53.588 315.783 54.243 L 321.434 55.635 Q 327.003 56.946 329.788 59.771 Q 332.573 62.597 332.573 67.183 Z M 348.951 68.821 Q 347.558 66.201 345.593 61.737 Q 343.627 57.273 341.539 51.745 Q 339.45 46.217 337.566 40.484 Q 338.14 39.665 339.082 39.174 Q 340.023 38.682 341.088 38.682 Q 342.48 38.682 343.381 39.419 Q 344.282 40.156 344.856 41.876 Q 347.313 48.756 350.015 55.554 Q 352.718 62.351 355.994 69.64 L 356.322 69.64 Q 358.041 66.201 359.925 61.041 Q 361.809 55.881 363.529 50.148 Q 365.249 44.415 366.395 39.337 Q 366.969 39.092 367.665 38.887 Q 368.361 38.682 369.18 38.682 Q 370.572 38.682 371.473 39.378 Q 372.374 40.074 372.374 41.467 Q 372.374 42.777 371.637 45.848 Q 370.9 48.92 369.63 52.974 Q 368.361 57.028 366.682 61.573 Q 365.003 66.119 363.078 70.5 Q 361.154 74.882 359.188 78.404 Q 355.421 85.365 352.308 89.092 Q 349.196 92.818 346.575 92.818 Q 344.692 92.818 343.668 91.835 Q 342.644 90.852 342.399 89.542 Q 344.2 87.986 346.453 85.406 Q 348.705 82.826 350.793 79.837 Q 352.882 76.848 354.192 74.145 Q 352.8 73.735 351.612 72.671 Q 350.425 71.606 348.951 68.821 Z" style="line-height: 191.825px; text-wrap-mode: nowrap; fill: rgb(255, 255, 255);">
        <title>easy</title>
      </path>
      <path d="M 241.611 127.954 Q 236.697 127.954 233.38 131.148 Q 230.063 134.342 230.063 140.485 Q 230.063 146.545 233.258 149.657 Q 236.452 152.77 241.529 152.77 Q 244.56 152.77 246.648 151.991 Q 248.737 151.213 250.293 150.313 Q 251.521 151.05 252.217 152.073 Q 252.914 153.097 252.914 154.571 Q 252.914 157.356 249.556 159.117 Q 246.198 160.878 240.71 160.878 Q 234.486 160.878 229.777 158.625 Q 225.068 156.373 222.406 151.787 Q 219.744 147.2 219.744 140.485 Q 219.744 133.523 222.57 128.937 Q 225.395 124.35 230.104 122.098 Q 234.814 119.846 240.465 119.846 Q 245.87 119.846 249.146 121.729 Q 252.422 123.613 252.422 126.398 Q 252.422 127.626 251.767 128.691 Q 251.112 129.756 250.211 130.411 Q 248.573 129.428 246.525 128.691 Q 244.478 127.954 241.611 127.954 Z M 271.358 130.247 L 271.358 141.467 L 261.285 141.467 L 261.285 129.428 Q 261.285 127.381 262.267 125.947 Q 263.25 124.514 265.052 123.286 Q 267.509 121.811 271.276 120.829 Q 275.044 119.846 279.385 119.846 Q 287.083 119.846 287.083 124.596 Q 287.083 125.743 286.756 126.684 Q 286.428 127.626 285.937 128.363 Q 285.118 128.2 283.889 128.077 Q 282.661 127.954 281.268 127.954 Q 278.32 127.954 275.74 128.568 Q 273.16 129.182 271.358 130.247 Z M 261.285 138.109 L 271.358 138.601 L 271.358 159.567 Q 270.703 159.813 269.475 160.018 Q 268.246 160.222 266.772 160.222 Q 263.987 160.222 262.636 159.199 Q 261.285 158.175 261.285 155.554 Z M 301.976 150.476 Q 300.666 147.774 298.987 143.72 Q 297.308 139.666 295.506 134.301 Q 293.705 128.937 291.821 122.467 Q 292.722 121.484 294.114 120.829 Q 295.506 120.173 297.144 120.173 Q 299.274 120.173 300.625 121.115 Q 301.976 122.057 302.714 124.514 Q 304.843 130.902 307.013 137.127 Q 309.184 143.351 311.641 149.821 L 311.968 149.821 Q 313.524 146.218 315.08 141.344 Q 316.637 136.471 318.07 131.23 Q 319.503 125.988 320.486 121.238 Q 321.469 120.747 322.533 120.46 Q 323.598 120.173 324.827 120.173 Q 326.874 120.173 328.389 121.115 Q 329.904 122.057 329.904 124.268 Q 329.904 126.234 329.208 129.469 Q 328.512 132.704 327.284 136.635 Q 326.055 140.566 324.458 144.825 Q 322.861 149.084 321.1 153.056 Q 319.339 157.028 317.537 160.222 Q 313.361 167.675 309.839 171.484 Q 306.317 175.292 303.041 175.292 Q 300.502 175.292 298.905 173.777 Q 297.308 172.262 296.981 170.05 Q 298.782 168.494 300.789 166.324 Q 302.795 164.154 304.679 161.697 Q 306.563 159.24 307.873 156.865 Q 306.481 156.455 305.089 155.186 Q 303.696 153.916 301.976 150.476 Z M 367.477 148.756 Q 367.477 154.489 363.218 157.724 Q 358.959 160.96 350.851 160.96 Q 344.299 160.96 340.122 158.994 Q 335.946 157.028 335.946 153.752 Q 335.946 152.36 336.601 151.172 Q 337.256 149.985 338.321 149.33 Q 340.614 150.804 343.644 151.951 Q 346.674 153.097 350.524 153.097 Q 357.485 153.097 357.485 148.838 Q 357.485 147.037 356.257 145.931 Q 355.028 144.825 352.489 144.334 L 347.821 143.105 Q 341.842 141.795 338.935 139.01 Q 336.027 136.226 336.027 131.557 Q 336.027 126.398 340.286 123.081 Q 344.545 119.764 352.08 119.764 Q 356.011 119.764 359.123 120.542 Q 362.235 121.32 363.996 122.794 Q 365.757 124.268 365.757 126.316 Q 365.757 127.708 365.143 128.814 Q 364.529 129.919 363.546 130.493 Q 362.563 129.919 360.884 129.223 Q 359.205 128.527 357.076 128.077 Q 354.946 127.626 352.817 127.626 Q 349.623 127.626 347.78 128.65 Q 345.937 129.674 345.937 131.557 Q 345.937 132.95 347.002 133.933 Q 348.067 134.915 350.606 135.489 L 354.783 136.471 Q 361.416 138.028 364.447 141.017 Q 367.477 144.006 367.477 148.756 Z M 375.96 138.109 L 386.033 138.109 L 386.033 147.774 Q 386.033 150.476 387.63 151.623 Q 389.227 152.77 392.176 152.77 Q 393.486 152.77 395.001 152.442 Q 396.517 152.114 397.581 151.623 Q 398.155 152.278 398.646 153.179 Q 399.137 154.08 399.137 155.39 Q 399.137 157.765 396.885 159.322 Q 394.633 160.878 389.883 160.878 Q 383.413 160.878 379.686 157.97 Q 375.96 155.063 375.96 148.511 Z M 382.102 129.756 L 382.102 121.811 L 398.155 121.811 Q 398.482 122.385 398.851 123.449 Q 399.219 124.514 399.219 125.661 Q 399.219 127.708 398.236 128.732 Q 397.254 129.756 395.698 129.756 Z M 386.033 140.321 L 375.96 140.321 L 375.96 110.837 Q 376.615 110.591 377.884 110.345 Q 379.154 110.1 380.546 110.1 Q 383.413 110.1 384.723 111.123 Q 386.033 112.147 386.033 114.768 Z M 422.818 153.261 Q 425.275 153.261 427.241 152.77 Q 429.206 152.278 430.107 151.705 L 430.107 142.368 L 421.999 143.187 Q 418.641 143.433 416.88 144.62 Q 415.12 145.808 415.12 148.101 Q 415.12 150.476 417.003 151.869 Q 418.887 153.261 422.818 153.261 Z M 422.409 119.846 Q 430.435 119.846 435.185 123.245 Q 439.935 126.643 439.935 133.933 L 439.935 152.77 Q 439.935 154.735 438.993 155.882 Q 438.052 157.028 436.577 157.929 Q 434.284 159.24 430.763 160.1 Q 427.241 160.96 422.818 160.96 Q 414.628 160.96 409.96 157.806 Q 405.292 154.653 405.292 148.429 Q 405.292 142.942 408.772 140.034 Q 412.253 137.127 418.887 136.471 L 430.025 135.325 L 430.025 133.851 Q 430.025 130.575 427.773 129.1 Q 425.521 127.626 421.426 127.626 Q 418.232 127.626 415.202 128.445 Q 412.171 129.264 409.796 130.411 Q 408.977 129.756 408.322 128.609 Q 407.667 127.462 407.667 126.234 Q 407.667 123.286 410.943 121.893 Q 413.236 120.829 416.307 120.337 Q 419.378 119.846 422.409 119.846 Z M 450.795 138.109 L 460.868 138.601 L 460.868 159.567 Q 460.213 159.813 458.985 160.018 Q 457.756 160.222 456.282 160.222 Q 453.497 160.222 452.146 159.199 Q 450.795 158.175 450.795 155.554 Z M 460.868 143.761 L 450.795 143.269 L 450.795 106.496 Q 451.368 106.332 452.637 106.087 Q 453.907 105.841 455.299 105.841 Q 458.248 105.841 459.558 106.865 Q 460.868 107.888 460.868 110.509 Z M 472.557 138.109 L 482.631 138.601 L 482.631 159.567 Q 481.976 159.813 480.747 160.018 Q 479.519 160.222 478.044 160.222 Q 475.26 160.222 473.909 159.199 Q 472.557 158.175 472.557 155.554 Z M 482.631 143.761 L 472.557 143.269 L 472.557 106.496 Q 473.13 106.332 474.4 106.087 Q 475.669 105.841 477.062 105.841 Q 480.01 105.841 481.32 106.865 Q 482.631 107.888 482.631 110.509 Z M 531.63 140.321 Q 531.63 146.627 529.175 151.237 Q 526.721 155.848 522.249 158.363 Q 517.778 160.878 511.729 160.878 Q 505.683 160.878 501.171 158.38 Q 496.659 155.882 494.161 151.295 Q 491.663 146.709 491.663 140.321 Q 491.663 134.011 494.202 129.426 Q 496.741 124.842 501.245 122.344 Q 505.75 119.846 511.715 119.846 Q 517.681 119.846 522.155 122.375 Q 526.63 124.905 529.13 129.501 Q 531.63 134.096 531.63 140.321 Z M 511.676 127.872 Q 507.224 127.872 504.644 131.148 Q 502.064 134.424 502.064 140.321 Q 502.064 146.381 504.613 149.616 Q 507.161 152.851 511.729 152.851 Q 516.233 152.851 518.772 149.575 Q 521.311 146.299 521.311 140.321 Q 521.311 134.506 518.753 131.189 Q 516.194 127.872 511.676 127.872 Z M 556.268 158.339 Q 551.435 158.339 547.34 156.496 Q 543.245 154.653 540.788 150.394 Q 538.331 146.136 538.331 139.174 Q 538.331 132.786 540.829 128.486 Q 543.327 124.186 547.873 122.016 Q 552.418 119.846 558.315 119.846 Q 562.492 119.846 566.055 120.91 Q 569.617 121.975 571.747 123.367 Q 573.139 124.268 573.999 125.538 Q 574.859 126.807 574.859 128.609 L 574.859 154.162 L 565.031 154.162 L 565.031 129.51 Q 563.966 128.855 562.41 128.363 Q 560.854 127.872 558.561 127.872 Q 554.056 127.872 551.231 130.657 Q 548.405 133.441 548.405 139.174 Q 548.405 145.48 551.149 148.019 Q 553.892 150.558 557.906 150.558 Q 561.018 150.558 562.942 149.494 Q 564.867 148.429 566.177 147.2 L 566.505 155.39 Q 565.031 156.537 562.451 157.438 Q 559.871 158.339 556.268 158.339 Z M 565.195 159.977 L 565.195 151.951 L 574.859 151.951 L 574.859 160.304 Q 574.859 165.874 572.32 169.354 Q 569.781 172.835 565.399 174.473 Q 561.018 176.111 555.612 176.111 Q 551.354 176.111 548.2 175.292 Q 545.047 174.473 543.573 173.572 Q 540.87 171.934 540.87 169.068 Q 540.87 167.593 541.526 166.447 Q 542.181 165.3 543.082 164.727 Q 545.129 166.037 548.2 167.02 Q 551.272 168.003 554.711 168.003 Q 559.625 168.003 562.41 166.078 Q 565.195 164.154 565.195 159.977 Z M 595.366 130.247 L 595.366 141.467 L 585.292 141.467 L 585.292 129.428 Q 585.292 127.381 586.275 125.947 Q 587.258 124.514 589.06 123.286 Q 591.517 121.811 595.284 120.829 Q 599.052 119.846 603.392 119.846 Q 611.091 119.846 611.091 124.596 Q 611.091 125.743 610.763 126.684 Q 610.436 127.626 609.944 128.363 Q 609.125 128.2 607.897 128.077 Q 606.668 127.954 605.276 127.954 Q 602.328 127.954 599.748 128.568 Q 597.168 129.182 595.366 130.247 Z M 585.292 138.109 L 595.366 138.601 L 595.366 159.567 Q 594.711 159.813 593.482 160.018 Q 592.254 160.222 590.78 160.222 Q 587.995 160.222 586.644 159.199 Q 585.292 158.175 585.292 155.554 Z M 632.147 153.261 Q 634.604 153.261 636.57 152.77 Q 638.536 152.278 639.436 151.705 L 639.436 142.368 L 631.328 143.187 Q 627.97 143.433 626.21 144.62 Q 624.449 145.808 624.449 148.101 Q 624.449 150.476 626.332 151.869 Q 628.216 153.261 632.147 153.261 Z M 631.738 119.846 Q 639.764 119.846 644.514 123.245 Q 649.264 126.643 649.264 133.933 L 649.264 152.77 Q 649.264 154.735 648.323 155.882 Q 647.381 157.028 645.907 157.929 Q 643.613 159.24 640.092 160.1 Q 636.57 160.96 632.147 160.96 Q 623.957 160.96 619.289 157.806 Q 614.621 154.653 614.621 148.429 Q 614.621 142.942 618.101 140.034 Q 621.582 137.127 628.216 136.471 L 639.355 135.325 L 639.355 133.851 Q 639.355 130.575 637.102 129.1 Q 634.85 127.626 630.755 127.626 Q 627.561 127.626 624.531 128.445 Q 621.5 129.264 619.125 130.411 Q 618.306 129.756 617.651 128.609 Q 616.996 127.462 616.996 126.234 Q 616.996 123.286 620.272 121.893 Q 622.565 120.829 625.636 120.337 Q 628.708 119.846 631.738 119.846 Z M 677.814 160.878 Q 683.465 160.878 687.847 158.543 Q 692.229 156.209 694.726 151.623 Q 697.224 147.037 697.224 140.157 Q 697.224 133.032 694.563 128.527 Q 691.901 124.023 687.233 121.934 Q 682.564 119.846 676.586 119.846 Q 672.163 119.846 668.641 120.869 Q 665.12 121.893 662.745 123.286 Q 661.025 124.35 660.288 125.579 Q 659.55 126.807 659.55 128.691 L 659.55 155.554 L 669.624 155.554 L 669.624 129.674 Q 670.853 128.937 672.573 128.404 Q 674.292 127.872 676.586 127.872 Q 679.534 127.872 681.909 129.1 Q 684.284 130.329 685.636 132.991 Q 686.987 135.652 686.987 140.157 Q 686.987 146.627 684.12 149.698 Q 681.254 152.77 676.34 152.77 Q 673.392 152.77 671.221 151.746 Q 669.051 150.722 667.495 149.412 L 667.495 158.093 Q 669.215 159.158 671.876 160.018 Q 674.538 160.878 677.814 160.878 Z M 669.624 152.77 L 659.55 152.688 L 659.55 170.296 Q 659.55 172.917 660.902 173.982 Q 662.253 175.046 665.038 175.046 Q 666.512 175.046 667.74 174.842 Q 668.969 174.637 669.624 174.391 Z M 741.748 143.187 L 731.675 143.187 L 731.675 135.816 Q 731.675 131.639 729.423 129.756 Q 727.17 127.872 723.73 127.872 Q 720.946 127.872 718.612 128.937 Q 716.278 130.001 714.558 131.394 L 713.984 123.204 Q 715.868 122.057 718.816 120.951 Q 721.765 119.846 725.45 119.846 Q 732.821 119.846 737.285 123.695 Q 741.748 127.544 741.748 135.325 Z M 705.958 138.109 L 716.032 138.109 L 716.032 159.567 Q 715.377 159.813 714.148 160.018 Q 712.92 160.222 711.445 160.222 Q 708.661 160.222 707.31 159.199 Q 705.958 158.175 705.958 155.554 Z M 731.675 138.191 L 741.748 138.191 L 741.748 159.567 Q 741.093 159.813 739.824 160.018 Q 738.554 160.222 737.162 160.222 Q 734.296 160.222 732.985 159.199 Q 731.675 158.175 731.675 155.554 Z M 716.032 143.269 L 705.958 143.269 L 705.958 106.496 Q 706.613 106.332 707.842 106.087 Q 709.07 105.841 710.545 105.841 Q 713.411 105.841 714.721 106.865 Q 716.032 107.888 716.032 110.509 Z M 758.154 150.476 Q 756.844 147.774 755.165 143.72 Q 753.486 139.666 751.684 134.301 Q 749.882 128.937 747.999 122.467 Q 748.9 121.484 750.292 120.829 Q 751.684 120.173 753.322 120.173 Q 755.452 120.173 756.803 121.115 Q 758.154 122.057 758.891 124.514 Q 761.021 130.902 763.191 137.127 Q 765.362 143.351 767.819 149.821 L 768.146 149.821 Q 769.702 146.218 771.258 141.344 Q 772.814 136.471 774.248 131.23 Q 775.681 125.988 776.664 121.238 Q 777.647 120.747 778.711 120.46 Q 779.776 120.173 781.004 120.173 Q 783.052 120.173 784.567 121.115 Q 786.082 122.057 786.082 124.268 Q 786.082 126.234 785.386 129.469 Q 784.69 132.704 783.461 136.635 Q 782.233 140.566 780.636 144.825 Q 779.039 149.084 777.278 153.056 Q 775.517 157.028 773.715 160.222 Q 769.538 167.675 766.017 171.484 Q 762.495 175.292 759.219 175.292 Q 756.68 175.292 755.083 173.777 Q 753.486 172.262 753.158 170.05 Q 754.96 168.494 756.967 166.324 Q 758.973 164.154 760.857 161.697 Q 762.741 159.24 764.051 156.865 Q 762.659 156.455 761.267 155.186 Q 759.874 153.916 758.154 150.476 Z" style="line-height: 191.825px; text-wrap-mode: nowrap; fill: rgb(255, 255, 255);">
        <title>crystallography</title>
      </path>
    </g>
  </g>
</svg>