<?xml version="1.0" encoding="UTF-8" standalone="no"?>
<!-- Created with Inkscape (http://www.inkscape.org/) -->

<svg
   width="1024"
   height="1024"
   viewBox="0 0 270.93333 270.93334"
   version="1.1"
   id="svg5"
   inkscape:version="1.4 (86a8ad7, 2024-10-11)"
   sodipodi:docname="icon.svg"
   inkscape:export-filename="icon.png"
   inkscape:export-xdpi="96"
   inkscape:export-ydpi="96"
   xmlns:inkscape="http://www.inkscape.org/namespaces/inkscape"
   xmlns:sodipodi="http://sodipodi.sourceforge.net/DTD/sodipodi-0.dtd"
   xmlns:xlink="http://www.w3.org/1999/xlink"
   xmlns="http://www.w3.org/2000/svg"
   xmlns:svg="http://www.w3.org/2000/svg">
  <sodipodi:namedview
     id="namedview7"
     pagecolor="#ffffff"
     bordercolor="#666666"
     borderopacity="1.0"
     inkscape:pageshadow="2"
     inkscape:pageopacity="0.0"
     inkscape:pagecheckerboard="true"
     inkscape:document-units="px"
     showgrid="false"
     units="px"
     width="1024px"
     inkscape:zoom="0.8451009"
     inkscape:cx="226.60016"
     inkscape:cy="396.99402"
     inkscape:window-width="3440"
     inkscape:window-height="1351"
     inkscape:window-x="-9"
     inkscape:window-y="-9"
     inkscape:window-maximized="1"
     inkscape:current-layer="layer2"
     inkscape:snap-global="false"
     inkscape:showpageshadow="2"
     inkscape:deskcolor="#d1d1d1" />
  <defs
     id="defs2" />
  <g
     inkscape:label="Layer 1"
     inkscape:groupmode="layer"
     id="layer1">
    <path
       style="fill:#008000;fill-opacity:1;stroke-width:0;stroke-linecap:round;stroke-linejoin:round;paint-order:markers fill stroke"
       sodipodi:type="inkscape:offset"
       inkscape:radius="0"
       inkscape:original="M 38.628906 20.373047 C 32.765737 20.373047 28.044922 25.093862 28.044922 30.957031 L 28.044922 239.97656 C 28.044922 245.83972 32.765737 250.56055 38.628906 250.56055 L 78.316406 250.56055 C 84.179564 250.56055 88.900391 245.83972 88.900391 239.97656 L 88.900391 30.957031 C 88.900391 25.093862 84.179564 20.373047 78.316406 20.373047 L 38.628906 20.373047 z M 115.62305 20.373047 C 109.75988 20.373047 105.03906 25.093862 105.03906 30.957031 L 105.03906 239.97656 C 105.03906 245.83973 109.75988 250.56055 115.62305 250.56055 L 155.31055 250.56055 C 161.17372 250.56055 165.89453 245.83973 165.89453 239.97656 L 165.89453 30.957031 C 165.89453 25.093862 161.17372 20.373047 155.31055 20.373047 L 115.62305 20.373047 z M 192.61719 20.373047 C 186.75403 20.373047 182.0332 25.093862 182.0332 30.957031 L 182.0332 239.97656 C 182.0332 245.83972 186.75403 250.56055 192.61719 250.56055 L 232.30469 250.56055 C 238.16785 250.56055 242.88672 245.83972 242.88672 239.97656 L 242.88672 30.957031 C 242.88672 25.093862 238.16785 20.373047 232.30469 20.373047 L 192.61719 20.373047 z "
       xlink:href="#rect904"
       id="path20410"
       inkscape:href="#rect904"
       d="m 38.628906,20.373047 c -5.863169,0 -10.583984,4.720815 -10.583984,10.583984 V 239.97656 c 0,5.86316 4.720815,10.58399 10.583984,10.58399 h 39.6875 c 5.863158,0 10.583985,-4.72083 10.583985,-10.58399 V 30.957031 c 0,-5.863169 -4.720827,-10.583984 -10.583985,-10.583984 z m 76.994144,0 c -5.86317,0 -10.58399,4.720815 -10.58399,10.583984 V 239.97656 c 0,5.86317 4.72082,10.58399 10.58399,10.58399 h 39.6875 c 5.86317,0 10.58398,-4.72082 10.58398,-10.58399 V 30.957031 c 0,-5.863169 -4.72081,-10.583984 -10.58398,-10.583984 z m 76.99414,0 c -5.86316,0 -10.58399,4.720815 -10.58399,10.583984 V 239.97656 c 0,5.86316 4.72083,10.58399 10.58399,10.58399 h 39.6875 c 5.86316,0 10.58203,-4.72083 10.58203,-10.58399 V 30.957031 c 0,-5.863169 -4.71887,-10.583984 -10.58203,-10.583984 z" />
    <path
       style="fill:#ffffff;fill-opacity:1;stroke-width:0;stroke-linecap:round;stroke-linejoin:round;paint-order:markers fill stroke"
       sodipodi:type="inkscape:offset"
       inkscape:radius="11.587987"
       inkscape:original="M 38.628906 20.373047 C 32.765737 20.373047 28.044922 25.093862 28.044922 30.957031 L 28.044922 239.97656 C 28.044922 245.83972 32.765737 250.56055 38.628906 250.56055 L 78.316406 250.56055 C 84.179564 250.56055 88.900391 245.83972 88.900391 239.97656 L 88.900391 30.957031 C 88.900391 25.093862 84.179564 20.373047 78.316406 20.373047 L 38.628906 20.373047 z M 115.62305 20.373047 C 109.75988 20.373047 105.03906 25.093862 105.03906 30.957031 L 105.03906 239.97656 C 105.03906 245.83973 109.75988 250.56055 115.62305 250.56055 L 155.31055 250.56055 C 161.17372 250.56055 165.89453 245.83973 165.89453 239.97656 L 165.89453 30.957031 C 165.89453 25.093862 161.17372 20.373047 155.31055 20.373047 L 115.62305 20.373047 z M 192.61719 20.373047 C 186.75403 20.373047 182.0332 25.093862 182.0332 30.957031 L 182.0332 239.97656 C 182.0332 245.83972 186.75403 250.56055 192.61719 250.56055 L 232.30469 250.56055 C 238.16785 250.56055 242.88672 245.83972 242.88672 239.97656 L 242.88672 30.957031 C 242.88672 25.093862 238.16785 20.373047 232.30469 20.373047 L 192.61719 20.373047 z "
       xlink:href="#rect904"
       id="path42675"
       inkscape:href="#rect904"
       d="m 38.628906,8.7851562 c -12.083325,0 -22.171875,10.0885498 -22.171875,22.1718748 V 239.97656 c 0,12.08333 10.08853,22.17188 22.171875,22.17188 h 39.6875 c 7.779978,0 14.686596,-4.20987 18.652344,-10.41406 3.96567,6.20463 10.874,10.41406 18.6543,10.41406 h 39.6875 c 7.7803,0 14.68863,-4.20943 18.65429,-10.41406 3.96575,6.20419 10.87237,10.41406 18.65235,10.41406 h 39.6875 c 12.08334,0 22.16992,-10.09111 22.16992,-22.17188 V 30.957031 c 0,-12.080762 -10.0866,-22.1718748 -22.16992,-22.1718748 h -39.6875 c -7.77997,0 -14.68659,4.2098668 -18.65235,10.4140628 -3.96566,-6.204632 -10.874,-10.4140628 -18.65429,-10.4140628 h -39.6875 c -7.7803,0 -14.68863,4.2094308 -18.6543,10.4140628 C 93.002998,12.995023 86.096371,8.7851562 78.316406,8.7851562 Z" />
    <path
       id="rect904"
       style="fill:#008000;fill-opacity:1;stroke-width:0;stroke-linecap:round;stroke-linejoin:round;paint-order:markers fill stroke"
       d="m 38.629166,20.372916 c -5.863169,0 -10.583333,4.720165 -10.583333,10.583334 v 209.02083 c 0,5.86316 4.720164,10.58333 10.583333,10.58333 h 39.6875 c 5.863158,0 10.583333,-4.72017 10.583333,-10.58333 V 30.95625 c 0,-5.863169 -4.720175,-10.583334 -10.583333,-10.583334 z m 76.993754,0 c -5.86317,0 -10.58334,4.720165 -10.58334,10.583334 v 209.02083 c 0,5.86317 4.72017,10.58333 10.58334,10.58333 h 39.68749 c 5.86317,0 10.58334,-4.72016 10.58334,-10.58333 V 30.95625 c 0,-5.863169 -4.72017,-10.583334 -10.58334,-10.583334 z m 76.99374,0 c -5.86316,0 -10.58333,4.720165 -10.58333,10.583334 v 209.02083 c 0,5.86316 4.72017,10.58333 10.58333,10.58333 h 39.6875 c 5.86316,0 10.58334,-4.72017 10.58334,-10.58333 V 30.95625 c 0,-5.863169 -4.72018,-10.583334 -10.58334,-10.583334 z"
       sodipodi:nodetypes="sssssssssssssssssssssssssss" />
    <path
       d="m 58.472912,200.55421 c 7.30627,0 13.22917,5.9229 13.22917,13.22917 0,7.30627 -5.9229,13.22917 -13.22917,13.22917 -7.30627,0 -13.22916,-5.9229 -13.22916,-13.22917 0,-7.30627 5.92289,-13.22917 13.22916,-13.22917 z m 76.993748,0 c 7.30627,0 13.22917,5.9229 13.22917,13.22917 0,7.30627 -5.9229,13.22917 -13.22917,13.22917 -7.30627,-1e-5 -13.22916,-5.92291 -13.22916,-13.22917 0,-7.30627 5.92289,-13.22917 13.22916,-13.22917 z m 76.99375,0 c 7.30627,0 13.22917,5.9229 13.22917,13.22917 0,7.30627 -5.9229,13.22917 -13.22917,13.22917 -7.30627,-1e-5 -13.22916,-5.92291 -13.22916,-13.22917 0,-7.30627 5.92289,-13.22917 13.22916,-13.22917 z"
       style="fill:#ffffff;fill-opacity:1;stroke-width:0;stroke-linecap:round;stroke-linejoin:round;paint-order:markers fill stroke"
       id="path20674"
       sodipodi:nodetypes="sssssssssssssss" />
    <path
       d="M 45.243751,42.333354 H 71.702079 V 121.70847 H 45.243751 Z m 76.993749,0 h 26.45833 V 121.70847 H 122.2375 Z m 76.99375,0 h 26.45833 v 79.375116 h -26.45833 z"
       style="display:inline;fill:#ffffff;fill-opacity:1;stroke-width:0;stroke-linecap:round;stroke-linejoin:round;paint-order:markers fill stroke"
       id="path21007" />
    <g
       aria-label="4"
       id="text2050"
       style="font-weight:bold;font-size:180.622px;font-family:Noteworthy;-inkscape-font-specification:'Noteworthy Bold';display:none;opacity:0.99;fill:#ff0000;stroke:#ff0000;stroke-width:0.264583"
       transform="translate(-1.3069424e-4,-1.015755)">
      <path
         id="path179"
         style="opacity:1;fill:#ffffff;stroke:none;stroke-width:0.227183"
         d="M 166,52.925781 C 154.03935,52.801044 143.9947,60.758609 137.28573,70.01453 128.17147,80.098095 117.2621,88.437491 107.24001,97.608081 94.632386,108.91054 80.717964,118.74341 68.69869,130.68242 c -9.566988,8.78921 -14.104558,24.25008 -6.780774,35.78111 7.3795,10.80783 20.129624,17.64569 32.954075,19.32018 12.194349,0.53211 24.308049,-1.48277 36.385819,-2.87942 -0.5178,11.15518 0.87855,24.40082 11.05915,31.13521 9.81279,7.32012 24.36416,8.33509 34.07444,0.22524 7.06148,-6.79791 10.3914,-18.00305 6.18011,-27.12313 -2.1475,-4.07812 -3.1569,-6.24722 2.54423,-4.92125 6.65617,0.87245 3.62505,0.73252 7.83145,0.98478 10.98393,0.59758 20.53567,-9.46479 19.6613,-20.35907 0.16569,-6.94935 -0.75038,-14.54008 -6.49381,-19.21679 -6.24351,-6.07222 -14.96569,-8.72963 -23.45474,-9.56086 2.10625,-13.37083 3.78849,-26.88976 6.89672,-40.053132 1.32918,-4.644333 2.76135,-6.609028 3.43856,-13.479306 C 194.02425,65.725808 180.53911,52.78966 166,52.925781 Z"
         sodipodi:nodetypes="cccccccccccccccccc" />
      <path
         d="m 197.21201,163.7204 c -1.10217,7.5879 -9.99885,1.9842 -15.15766,2.66865 -5.90181,-0.0519 -14.08666,-2.32548 -18.55027,-0.65732 0.42186,9.22828 -0.52542,19.14203 4.42251,27.41949 3.08663,5.72631 -2.89244,12.64298 -9.09035,11.44701 -5.85591,-0.71862 -11.63907,-4.12547 -11.63973,-10.83115 -1.12714,-8.99404 -0.43486,-18.184 0.48352,-27.13873 -4.13942,-1.72872 -12.0575,0.58572 -17.64701,0.82902 -11.76254,1.35192 -23.61922,3.63376 -35.483545,2.73321 -7.647382,-1.86642 -15.659506,-5.75959 -19.919415,-12.63895 -3.031031,-6.73539 2.826845,-13.1378 7.026017,-17.87477 8.363178,-8.30725 18.040468,-15.18493 26.909463,-22.94606 12.82593,-10.93733 25.66556,-21.935332 37.80591,-33.608901 5.38981,-5.771347 9.92379,-14.401469 18.81,-14.760085 7.49119,-0.776988 14.83485,7.05935 11.84458,14.460204 -2.73099,7.131293 -4.32869,14.579904 -5.36531,22.136152 -2.25761,14.91228 -5.4179,29.73825 -6.4361,44.80411 9.38337,-1.34796 19.86044,-1.50761 28.27976,3.47742 3.93479,1.56667 3.72028,5.38023 3.66309,8.83276 0.0148,0.54931 0.0297,1.09863 0.0445,1.64794 z M 152.8174,99.745645 c -17.3125,12.046345 -33.8612,25.294485 -49.08026,39.907555 -2.7225,3.72992 -11.551715,9.78668 -7.358083,14.26501 17.170203,-1.11481 34.398783,-2.67747 51.591763,-3.96207 1.61553,-16.73683 3.23105,-33.47366 4.84658,-50.210495 z"
         style="opacity:1;stroke-width:0.227183"
         id="path2156"
         inkscape:label="path2156" />
    </g>
  </g>
  <g
     inkscape:groupmode="layer"
     id="layer2"
     inkscape:label="Layer 2"
     transform="translate(8.8270191,-6.7716138)">
    <path
       style="font-style:normal;font-variant:normal;font-weight:bold;font-stretch:normal;font-size:182.887px;font-family:Candara;-inkscape-font-specification:'Candara, Bold';font-variant-ligatures:normal;font-variant-caps:normal;font-variant-numeric:normal;font-variant-east-asian:normal;text-align:start;writing-mode:lr-tb;direction:ltr;text-anchor:start;fill:#ffffff;stroke-width:16.5056"
       sodipodi:type="inkscape:offset"
       inkscape:radius="19.742275"
       inkscape:original="M 90.630859 68.796875 C 90.223981 77.748198 88.663694 99.989397 85.951172 135.52344 C 82.424893 139.04972 80.662109 142.10279 80.662109 144.67969 C 80.662109 146.84971 81.339051 148.67999 82.695312 150.17188 C 84.1872 151.52814 86.019435 152.20703 88.189453 152.20703 C 90.495097 152.20703 92.460377 151.39314 94.087891 149.76562 C 95.715404 148.13811 96.529297 146.23838 96.529297 144.06836 C 96.529297 143.52585 96.394299 142.44197 96.123047 140.81445 C 102.36185 135.66066 109.88938 133.08203 118.70508 133.08203 C 134.03083 133.08203 141.69336 144.13708 141.69336 166.24414 C 141.69336 178.58612 139.52363 188.01143 135.18359 194.52148 C 130.97918 200.89591 124.80749 204.08398 116.66992 204.08398 C 112.05863 204.08398 107.92167 203.20259 104.25977 201.43945 C 100.59786 199.67631 98.767578 197.70908 98.767578 195.53906 C 98.767578 194.58968 99.581471 193.64079 101.20898 192.69141 C 105.14214 190.79264 107.92327 188.75791 109.55078 186.58789 C 111.31392 184.28225 112.19531 181.43362 112.19531 178.04297 C 112.19531 173.0248 110.56753 169.02479 107.3125 166.04102 C 104.1931 162.92162 100.05614 161.36133 94.902344 161.36133 C 88.934795 161.36133 84.188388 163.25911 80.662109 167.05664 C 77.135831 170.85417 75.373047 175.87253 75.373047 182.11133 C 75.373047 192.28329 79.577509 200.42222 87.986328 206.52539 C 96.395147 212.62857 107.65074 215.67969 121.75586 215.67969 C 138.43787 215.67969 151.93265 211.00078 162.24023 201.64258 C 172.68344 192.28438 177.90625 180.14543 177.90625 165.22656 C 177.90625 151.9352 173.09039 140.9496 163.46094 132.26953 C 153.96711 123.58946 141.89762 119.25 127.25 119.25 C 119.11243 119.25 109.34572 121.82668 97.953125 126.98047 L 101.00586 100.73633 C 110.63531 102.77072 119.17924 103.78711 126.63867 103.78711 C 144.13444 103.78711 156.95228 98.566257 165.08984 88.123047 C 169.70113 82.019872 172.00586 76.322621 172.00586 71.033203 C 172.00586 69.541316 171.46392 68.796875 170.37891 68.796875 C 169.42952 68.796875 168.34368 68.999372 167.12305 69.40625 C 159.25673 71.305016 146.98279 72.253906 130.30078 72.253906 C 114.8394 72.253906 101.61657 71.102519 90.630859 68.796875 z "
       xlink:href="#text1"
       id="path1"
       inkscape:href="#text1"
       d="m 170.37891,49.054687 c -3.75664,0 -6.80947,0.72685 -9.49805,1.623047 l 1.60937,-0.46289 c -4.77135,1.151705 -16.25608,2.296875 -32.18945,2.296875 -14.48126,0 -26.45309,-1.114191 -35.615233,-3.03711 A 19.744249,19.744249 0 0 0 70.908203,67.900391 c -0.334479,7.358555 -1.946942,29.956356 -4.193359,59.728519 -3.205433,4.24215 -5.794922,9.45491 -5.794922,17.05078 0,3.87904 1.098061,8.16669 2.935547,12.09961 -5.467059,7.39148 -8.22461,16.61757 -8.22461,25.33203 0,15.61212 8.130211,31.22402 20.759766,40.39062 12.655235,9.18526 28.413105,12.91992 45.365235,12.91992 20.34936,0 39.47633,-6.22908 53.70312,-19.11914 14.29728,-12.83651 22.18946,-31.57037 22.18946,-51.07617 0,-18.03788 -7.60136,-35.54071 -20.92188,-47.57422 -2.5237,-2.30207 -5.25501,-4.31978 -8.08203,-6.18554 4.50255,-3.12278 8.58772,-6.80733 12.01758,-11.20899 a 19.744249,19.744249 0 0 0 0.17969,-0.23437 c 6.26633,-8.293671 10.90625,-17.966021 10.90625,-28.990237 0,-3.136457 -0.22758,-7.853412 -4.18555,-13.292969 -3.95797,-5.439556 -12.12594,-8.685547 -17.18359,-8.685547 z m -49.72657,102.433593 0.61914,0.59375 c -0.1042,-0.1042 -0.24003,-0.17078 -0.3457,-0.27344 -0.1019,-0.0962 -0.1702,-0.22568 -0.27344,-0.32031 z m 4.69141,46.94531 c -0.0371,0.0488 -0.0827,0.10092 -0.0684,0.0781 0.0219,-0.029 0.0465,-0.0489 0.0684,-0.0781 z" />
    <text
       xml:space="preserve"
       style="font-style:normal;font-variant:normal;font-weight:bold;font-stretch:normal;font-size:244.127px;font-family:'Frank Ruehl CLM';-inkscape-font-specification:'Frank Ruehl CLM, Bold';font-variant-ligatures:normal;font-variant-caps:normal;font-variant-numeric:normal;font-variant-east-asian:normal;text-align:start;writing-mode:lr-tb;direction:ltr;text-anchor:start;fill:#ff0000;stroke-width:22.0324"
       x="69.065613"
       y="212.83109"
       id="text1"><tspan
         sodipodi:role="line"
         id="tspan1"
         style="font-style:normal;font-variant:normal;font-weight:bold;font-stretch:normal;font-size:244.127px;font-family:'Frank Ruehl CLM';-inkscape-font-specification:'Frank Ruehl CLM, Bold';font-variant-ligatures:normal;font-variant-caps:normal;font-variant-numeric:normal;font-variant-east-asian:normal;fill:#ff0000;stroke-width:22.0324"
         x="69.065613"
         y="212.83109">5</tspan></text>
  </g>
</svg>
