<?xml version="1.0" encoding="UTF-8"?>
<svg xmlns="http://www.w3.org/2000/svg" xmlns:xlink="http://www.w3.org/1999/xlink" width="40px" height="32px" viewBox="0 0 40 32" version="1.1">
<g id="surface1">
<path style=" stroke:none;fill-rule:nonzero;fill:rgb(99.607843%,99.607843%,99.607843%);fill-opacity:1;" d="M 4.707031 2 C 4.832031 2.003906 4.957031 2.007812 5.085938 2.011719 C 5.683594 2.054688 6.273438 2.117188 6.867188 2.199219 C 6.996094 2.214844 7.128906 2.230469 7.265625 2.25 C 7.550781 2.285156 7.832031 2.320312 8.117188 2.359375 C 8.566406 2.417969 9.015625 2.476562 9.464844 2.53125 C 10.585938 2.675781 11.703125 2.820312 12.820312 2.964844 C 13.765625 3.085938 14.710938 3.207031 15.65625 3.328125 C 16.097656 3.386719 16.539062 3.445312 16.980469 3.5 C 17.253906 3.535156 17.527344 3.570312 17.800781 3.605469 C 17.921875 3.621094 18.042969 3.636719 18.167969 3.65625 C 19.535156 3.828125 20.851562 3.785156 22.214844 3.605469 C 22.347656 3.589844 22.484375 3.574219 22.621094 3.554688 C 22.910156 3.519531 23.195312 3.480469 23.484375 3.445312 C 23.941406 3.386719 24.394531 3.328125 24.851562 3.269531 C 25.820312 3.148438 26.785156 3.027344 27.753906 2.902344 C 28.875 2.757812 30 2.617188 31.121094 2.472656 C 31.570312 2.417969 32.019531 2.359375 32.464844 2.300781 C 32.742188 2.265625 33.019531 2.234375 33.292969 2.199219 C 33.417969 2.179688 33.539062 2.164062 33.667969 2.148438 C 34.429688 2.054688 35.167969 1.992188 35.9375 2.039062 C 36.566406 2.621094 36.894531 3.269531 37.261719 4.046875 C 37.308594 4.144531 37.355469 4.242188 37.402344 4.34375 C 37.550781 4.652344 37.695312 4.964844 37.839844 5.273438 C 37.941406 5.484375 38.039062 5.695312 38.140625 5.902344 C 38.320312 6.285156 38.503906 6.671875 38.683594 7.054688 C 38.8125 7.328125 38.945312 7.601562 39.089844 7.867188 C 39.316406 8.371094 39.296875 8.878906 39.21875 9.410156 C 38.808594 10.300781 38.222656 10.648438 37.34375 10.980469 C 36.980469 11.085938 36.613281 11.191406 36.25 11.292969 C 36.25 11.457031 36.25 11.617188 36.25 11.785156 C 36.242188 13.316406 36.234375 14.851562 36.222656 16.382812 C 36.214844 17.171875 36.210938 17.957031 36.207031 18.746094 C 36.207031 19.507812 36.199219 20.269531 36.191406 21.027344 C 36.191406 21.316406 36.1875 21.609375 36.1875 21.898438 C 36.1875 22.304688 36.183594 22.710938 36.179688 23.117188 C 36.179688 23.296875 36.179688 23.296875 36.179688 23.476562 C 36.160156 24.566406 35.773438 25.433594 35.035156 26.230469 C 34.152344 26.925781 33 27.097656 31.933594 27.355469 C 31.695312 27.414062 31.453125 27.476562 31.210938 27.535156 C 30.578125 27.695312 29.945312 27.847656 29.3125 28.003906 C 28.675781 28.160156 28.039062 28.320312 27.40625 28.476562 C 26.25 28.765625 25.09375 29.050781 23.9375 29.332031 C 23.480469 29.441406 23.027344 29.554688 22.574219 29.667969 C 22.34375 29.726562 22.109375 29.785156 21.875 29.84375 C 21.769531 29.871094 21.667969 29.898438 21.558594 29.925781 C 20.277344 30.242188 19.132812 30.148438 17.871094 29.824219 C 17.742188 29.792969 17.617188 29.761719 17.484375 29.726562 C 17.070312 29.625 16.65625 29.519531 16.242188 29.414062 C 15.953125 29.339844 15.664062 29.269531 15.375 29.195312 C 14.765625 29.042969 14.160156 28.890625 13.554688 28.734375 C 12.78125 28.539062 12.007812 28.34375 11.230469 28.152344 C 10.632812 28 10.035156 27.851562 9.4375 27.699219 C 9.152344 27.625 8.867188 27.554688 8.582031 27.484375 C 8.179688 27.382812 7.78125 27.28125 7.382812 27.179688 C 7.207031 27.136719 7.207031 27.136719 7.027344 27.089844 C 6.113281 26.855469 5.265625 26.578125 4.648438 25.824219 C 4.535156 25.691406 4.535156 25.691406 4.421875 25.554688 C 3.90625 24.792969 3.859375 24.070312 3.855469 23.171875 C 3.855469 23.042969 3.851562 22.914062 3.851562 22.78125 C 3.847656 22.359375 3.84375 21.933594 3.839844 21.511719 C 3.839844 21.21875 3.835938 20.921875 3.832031 20.628906 C 3.824219 19.855469 3.816406 19.082031 3.8125 18.308594 C 3.804688 17.519531 3.796875 16.730469 3.789062 15.941406 C 3.773438 14.390625 3.761719 12.84375 3.75 11.292969 C 3.621094 11.253906 3.492188 11.210938 3.355469 11.167969 C 3.1875 11.113281 3.019531 11.058594 2.84375 11 C 2.589844 10.917969 2.589844 10.917969 2.332031 10.835938 C 1.695312 10.601562 1.292969 10.308594 0.886719 9.765625 C 0.496094 8.480469 1 7.535156 1.570312 6.402344 C 1.652344 6.242188 1.730469 6.085938 1.808594 5.921875 C 2.035156 5.460938 2.265625 5.003906 2.5 4.550781 C 2.558594 4.429688 2.621094 4.3125 2.679688 4.191406 C 3.8125 1.96875 3.8125 1.96875 4.707031 2 Z M 4.707031 2 "/>
<path style=" stroke:none;fill-rule:nonzero;fill:rgb(0%,0%,0%);fill-opacity:1;" d="M 4.707031 2 C 4.832031 2.003906 4.957031 2.007812 5.085938 2.011719 C 5.683594 2.054688 6.273438 2.117188 6.867188 2.199219 C 6.996094 2.214844 7.128906 2.230469 7.265625 2.25 C 7.550781 2.285156 7.832031 2.320312 8.117188 2.359375 C 8.566406 2.417969 9.015625 2.476562 9.464844 2.53125 C 10.585938 2.675781 11.703125 2.820312 12.820312 2.964844 C 13.765625 3.085938 14.710938 3.207031 15.65625 3.328125 C 16.097656 3.386719 16.539062 3.445312 16.980469 3.5 C 17.253906 3.535156 17.527344 3.570312 17.800781 3.605469 C 17.921875 3.621094 18.042969 3.636719 18.167969 3.65625 C 19.535156 3.828125 20.851562 3.785156 22.214844 3.605469 C 22.347656 3.589844 22.484375 3.574219 22.621094 3.554688 C 22.910156 3.519531 23.195312 3.480469 23.484375 3.445312 C 23.941406 3.386719 24.394531 3.328125 24.851562 3.269531 C 25.820312 3.148438 26.785156 3.027344 27.753906 2.902344 C 28.875 2.757812 30 2.617188 31.121094 2.472656 C 31.570312 2.417969 32.019531 2.359375 32.464844 2.300781 C 32.742188 2.265625 33.019531 2.234375 33.292969 2.199219 C 33.417969 2.179688 33.539062 2.164062 33.667969 2.148438 C 34.429688 2.054688 35.167969 1.992188 35.9375 2.039062 C 36.566406 2.621094 36.894531 3.269531 37.261719 4.046875 C 37.308594 4.144531 37.355469 4.242188 37.402344 4.34375 C 37.550781 4.652344 37.695312 4.964844 37.839844 5.273438 C 37.941406 5.484375 38.039062 5.695312 38.140625 5.902344 C 38.320312 6.285156 38.503906 6.671875 38.683594 7.054688 C 38.8125 7.328125 38.945312 7.601562 39.089844 7.867188 C 39.316406 8.371094 39.296875 8.878906 39.21875 9.410156 C 38.800781 10.320312 38.214844 10.605469 37.34375 10.980469 C 36.929688 11.125 36.511719 11.238281 36.089844 11.347656 C 35.972656 11.378906 35.855469 11.40625 35.734375 11.441406 C 35.359375 11.539062 34.984375 11.636719 34.609375 11.734375 C 34.089844 11.871094 33.570312 12.011719 33.046875 12.148438 C 32.921875 12.183594 32.792969 12.214844 32.660156 12.25 C 31.90625 12.453125 31.15625 12.667969 30.410156 12.894531 C 30.242188 12.945312 30.074219 12.996094 29.902344 13.050781 C 29.601562 13.144531 29.300781 13.238281 29.003906 13.335938 C 28.035156 13.636719 27.105469 13.804688 26.09375 13.648438 C 25.046875 13.082031 24.574219 11.957031 24.003906 10.949219 C 23.785156 10.570312 23.566406 10.191406 23.347656 9.8125 C 23.261719 9.667969 23.261719 9.667969 23.175781 9.519531 C 22.773438 8.824219 22.359375 8.136719 21.9375 7.453125 C 21.878906 7.359375 21.820312 7.265625 21.761719 7.167969 C 21.480469 6.714844 21.199219 6.261719 20.917969 5.8125 C 20.816406 5.652344 20.71875 5.488281 20.613281 5.324219 C 20.527344 5.179688 20.4375 5.039062 20.347656 4.890625 C 20.15625 4.550781 20.15625 4.550781 20.15625 4.234375 C 19.671875 4.65625 19.382812 5.183594 19.0625 5.734375 C 18.972656 5.886719 18.972656 5.886719 18.882812 6.042969 C 18.753906 6.261719 18.625 6.480469 18.5 6.699219 C 18.167969 7.269531 17.832031 7.839844 17.496094 8.40625 C 17.394531 8.578125 17.394531 8.578125 17.292969 8.75 C 16.722656 9.71875 16.148438 10.6875 15.566406 11.648438 C 15.488281 11.777344 15.410156 11.910156 15.328125 12.046875 C 14.929688 12.703125 14.578125 13.242188 13.90625 13.648438 C 13.238281 13.804688 12.761719 13.800781 12.101562 13.625 C 11.9375 13.578125 11.769531 13.535156 11.601562 13.492188 C 11.421875 13.441406 11.246094 13.394531 11.0625 13.34375 C 10.878906 13.292969 10.695312 13.242188 10.503906 13.191406 C 8.992188 12.785156 7.488281 12.339844 5.988281 11.886719 C 4.878906 11.550781 3.769531 11.242188 2.644531 10.976562 C 1.957031 10.746094 1.421875 10.402344 0.957031 9.84375 C 0.660156 9.113281 0.664062 8.484375 0.925781 7.75 C 1.128906 7.292969 1.347656 6.847656 1.570312 6.402344 C 1.652344 6.242188 1.730469 6.085938 1.808594 5.921875 C 2.035156 5.460938 2.265625 5.003906 2.5 4.550781 C 2.558594 4.429688 2.621094 4.3125 2.679688 4.191406 C 3.8125 1.96875 3.8125 1.96875 4.707031 2 Z M 4.707031 2 "/>
</g>
</svg>
