<?xml version="1.0" encoding="UTF-8" standalone="no"?>
<!-- Created with Inkscape (http://www.inkscape.org/) -->

<svg
   width="200mm"
   height="200mm"
   viewBox="0 0 200 200"
   version="1.1"
   id="svg1"
   sodipodi:docname="favicon.svg"
   inkscape:export-filename="../Pictures/favicon.svg"
   inkscape:export-xdpi="96"
   inkscape:export-ydpi="96"
   inkscape:version="1.3 (0e150ed, 2023-07-21)"
   xmlns:inkscape="http://www.inkscape.org/namespaces/inkscape"
   xmlns:sodipodi="http://sodipodi.sourceforge.net/DTD/sodipodi-0.dtd"
   xmlns="http://www.w3.org/2000/svg"
   xmlns:svg="http://www.w3.org/2000/svg">
  <sodipodi:namedview
     id="namedview1"
     pagecolor="#ffffff"
     bordercolor="#000000"
     borderopacity="0.25"
     inkscape:showpageshadow="2"
     inkscape:pageopacity="0.0"
     inkscape:pagecheckerboard="0"
     inkscape:deskcolor="#d1d1d1"
     inkscape:document-units="mm"
     inkscape:zoom="0.35856832"
     inkscape:cx="-266.33697"
     inkscape:cy="715.34484"
     inkscape:window-width="1920"
     inkscape:window-height="1011"
     inkscape:window-x="0"
     inkscape:window-y="0"
     inkscape:window-maximized="1"
     inkscape:current-layer="layer1" />
  <defs
     id="defs1" />
  <g
     inkscape:label="Layer 1"
     inkscape:groupmode="layer"
     id="layer1">
    <path
       id="path1"
       style="fill:#2bd3e1;fill-opacity:1;stroke:#174d70;stroke-width:2.689;stroke-linecap:round;stroke-linejoin:round;stroke-miterlimit:4.2;stroke-dasharray:none;stroke-opacity:1"
       d="m 125.63833,7.9137288 c -0.28687,-0.022816 -0.57975,-0.021386 -0.87644,0.0062 -1.09544,0.1018621 -2.24503,0.5623684 -3.3569,1.4918986 0.20435,-0.1235616 0.40854,-0.247475 0.61289,-0.3710368 -0.0503,0.056013 -0.22075,0.1404469 -0.1509,0.1684652 0.0923,0.03702 0.17496,-0.1088601 0.27389,-0.1188558 0.0527,-0.00532 -0.0751,0.076734 -0.12093,0.1033529 -0.34691,0.2018629 -0.94051,0.4369978 -1.25935,0.5741251 -1.99311,0.855224 -3.99542,1.679606 -5.90352,2.71353 -3.70696,2.092885 -6.55889,5.370429 -9.3679,8.503873 -4.3593,5.083258 -8.219062,10.573748 -11.886615,16.169039 -1.538977,2.471176 -2.99378,4.992179 -4.404382,7.537525 -1.190195,-2.748688 -2.404002,-5.487078 -3.577559,-8.242908 -2.204232,-5.23316 -4.270936,-10.523334 -6.603732,-15.701884 -0.735304,-1.697736 -0.82653,-1.92788 -1.568896,-3.570325 -0.500073,-1.106381 -1.166247,-2.248239 -1.478463,-3.433382 -0.03199,-0.121432 -0.02215,-0.250073 -0.03307,-0.375171 -3.912881,-6.5417663 -13.164513,-1.008254 -9.251631,5.533513 1.938161,1.606697 3.236673,3.752014 4.536674,5.869926 2.860799,4.779319 5.454753,9.713927 8.003645,14.664738 2.143813,4.168186 4.143259,8.406736 6.060612,12.68243 -0.76597,1.544276 -1.515856,3.096685 -2.24069,4.660697 -2.272085,5.482191 -4.612335,10.98786 -6.220292,16.713192 -0.31256,1.112907 -0.559829,2.24309 -0.839742,3.364652 -0.95933,4.572415 -1.352067,9.262129 -0.873332,13.920598 0.145508,1.415893 0.285031,2.311472 0.452686,3.154846 C 68.778962,85.04357 61.959944,76.177434 54.903109,67.501306 48.389484,59.650963 41.717593,51.925772 34.501253,44.706315 30.32568,40.452466 26.107107,36.242647 21.637439,32.29467 20.80336,31.483851 19.772676,30.698674 19.329569,29.639535 14.944981,23.250373 5.9093564,29.451028 10.293945,35.84019 c 1.331731,1.679139 3.161762,2.88348 4.875672,4.146517 4.597046,3.470024 8.878656,7.331601 13.166121,11.170377 7.339684,6.666568 14.008422,14.016159 20.506759,21.490678 7.603733,8.950666 14.662453,18.342671 21.679297,27.754378 4.408129,5.96002 2.223147,2.99515 6.554638,8.89351 1.728317,2.31931 4.237684,2.22538 5.857524,0.97669 2.205769,3.14448 4.599392,6.15279 6.994405,9.15293 0.76531,0.9251 1.528845,1.85196 2.295984,2.77554 -4.310572,2.97696 -8.711388,5.82005 -13.233818,8.47442 -0.895407,0.5351 -1.803986,1.04789 -2.701644,1.57923 -3.043754,-1.62799 -6.075888,-3.27784 -9.070764,-4.99401 -3.705791,-2.18726 -7.292675,-4.56608 -10.86497,-6.96392 -2.949656,-2.1028 -5.829996,-4.30201 -8.749336,-6.44663 -2.084638,-1.63633 -4.073282,-3.38312 -6.069914,-5.12475 -0.53027,-0.47253 -1.079423,-0.92983 -1.521354,-1.49035 -0.232053,-0.29432 -0.235392,-0.38712 -0.198438,-0.36484 0.108336,0.0653 0.184222,0.17338 0.276469,0.25994 -4.523023,-6.17904 -13.261508,0.21748 -8.738485,6.3965 1.162487,1.2559 2.684425,2.09218 4.089673,3.04323 2.236726,1.5798 4.524838,3.08343 6.786149,4.62711 3.021813,2.19511 6.125028,4.26622 9.266101,6.2854 3.717726,2.59598 7.688064,4.76953 11.661304,6.93911 1.59955,0.90532 3.211421,1.78735 4.822962,2.67012 -3.196742,1.80582 -6.416677,3.56948 -9.678996,5.25705 -5.826044,3.03938 -11.722844,5.95821 -17.414958,9.24439 -0.730137,0.47392 -1.473844,0.92763 -2.190564,1.42162 -2.575546,1.77513 -4.923368,3.85772 -7.186124,6.00946 -1.23997,1.19286 -2.444067,2.57393 -3.941879,3.43958 -5.224501,5.57583 2.660195,12.96408 7.88479,7.38869 0.827054,-1.57781 1.893098,-2.99854 3.01222,-4.37751 2.201018,-2.6191 4.679759,-4.977 7.306014,-7.16183 4.978342,-3.78457 10.45323,-6.85824 15.825907,-10.03867 4.323443,-2.57892 8.68266,-5.09721 13.044165,-7.6109 0.51253,0.26892 1.020119,0.54698 1.533756,0.8139 4.326454,2.28091 8.709825,4.44702 13.116513,6.56756 4.241824,2.0177 8.457078,4.09164 12.677266,6.15415 3.80357,1.94601 7.77701,3.50986 11.77757,4.99401 3.50611,1.34139 7.09272,2.44249 10.75852,3.24631 3.03582,0.5837 6.17562,0.63523 9.19737,-0.0765 0.62395,-0.14695 1.23163,-0.35581 1.84743,-0.53382 3.34236,-1.18125 6.23198,-3.24093 8.96793,-5.44411 2.80244,-2.2541 4.85961,-5.15756 6.6859,-8.21552 1.9044,-3.24659 3.1295,-6.80502 4.30671,-10.36061 1.21759,-3.48928 2.14771,-7.06272 2.98948,-10.65774 0.82443,-3.40615 1.51373,-6.84196 2.19728,-10.27845 0.5251,-2.5786 1.00448,-5.16588 1.46813,-7.75611 1.07556,-6.48719 -8.09856,-8.00852 -9.17412,-1.52136 -0.3856,2.53173 -0.78564,5.06146 -1.23661,7.58249 -0.59713,3.31847 -1.21769,6.63348 -1.97766,9.91929 -0.78646,3.32011 -1.65925,6.61907 -2.76159,9.85056 -0.99771,2.90745 -2.05873,5.81075 -3.67058,8.44548 -1.31698,2.11763 -2.75998,4.14869 -4.70152,5.74952 -1.79343,1.46867 -3.67629,2.85567 -5.8353,3.74344 -2.11346,0.72323 -4.32813,0.90566 -6.5443,0.58446 -3.26799,-0.54168 -6.44463,-1.49305 -9.58288,-2.54248 -3.77005,-1.2749 -7.49537,-2.67511 -11.09906,-4.37234 -4.24965,-1.94085 -8.500136,-3.88201 -12.706723,-5.91489 -3.279597,-1.59605 -6.547196,-3.21701 -9.804052,-4.85913 4.604869,-2.66332 9.080196,-5.53417 13.468945,-8.53488 0.648257,0.73374 1.282125,1.46153 1.992643,2.22105 3.064877,3.27626 6.334857,6.36151 9.553937,9.48366 3.03199,2.93339 6.08409,5.84591 9.1364,8.75812 3.28525,3.03781 7.58111,-1.60789 4.29586,-4.64571 -3.1149,-2.79074 -6.23232,-5.57879 -9.29039,-8.43204 -2.5468,-2.41307 -3.79319,-3.5448 -6.24096,-6.06165 -1.52316,-1.56614 -2.99833,-3.17741 -4.45348,-4.80694 0.15293,-0.10886 0.30819,-0.21441 0.46095,-0.3235 4.07739,-3.00692 8.0773,-6.12877 11.83597,-9.52965 2.44736,-2.21436 3.00129,-2.82435 5.32733,-5.14749 3.96322,-4.14075 7.89856,-8.43028 10.7549,-13.438969 0.52667,-0.923536 0.96972,-1.89249 1.45469,-2.838587 1.55656,-3.427429 2.64887,-7.048815 3.17707,-10.777637 0.30021,-2.119457 0.2782,-2.781094 0.36845,-4.888073 0.0781,-3.923291 -0.53443,-7.787643 -1.47795,-11.580689 -0.80988,-3.087814 -1.91561,-6.084521 -3.38429,-8.917285 -1.09525,-1.821692 -0.53595,-0.935074 -1.67535,-2.661336 -3.74544,-5.569425 -11.62198,-0.272585 -7.87652,5.296834 0.83087,1.204329 0.43532,0.600456 1.19011,1.810225 1.20292,2.176897 2.1198,4.492504 2.84065,6.872449 0.87717,2.969685 1.61687,5.990078 1.78956,9.095052 0.0529,1.602283 0.11228,2.146664 -0.005,3.768246 -0.21511,2.971566 -0.93687,5.877447 -1.9482,8.673372 -0.92641,2.186717 -1.02837,2.626209 -2.27428,4.718575 -2.17853,3.65851 -4.99799,6.880483 -7.86671,10.004553 -2.05669,2.1208 -2.74967,2.88913 -4.91753,4.90927 -3.54621,3.30456 -7.34525,6.32724 -11.221534,9.23251 -0.300267,0.22053 -0.606773,0.43192 -0.907955,0.65112 -0.83856,-0.99831 -1.695808,-1.9815 -2.522327,-2.98896 -4.646822,-5.98184 -9.188513,-12.03354 -11.154358,-19.486154 -0.591779,-2.551239 -0.84305,-3.268181 -1.11156,-5.867859 -0.407704,-3.947361 -0.06316,-7.922211 0.671794,-11.809615 0.223457,-0.995498 0.418963,-1.99754 0.670243,-2.986381 1.306755,-5.142363 3.185018,-10.13363 5.20485,-15.034224 0.04006,0.09551 0.08197,0.190234 0.121957,0.28577 3.302447,8.073165 5.964708,16.382603 8.59224,24.693067 1.372905,4.135718 7.22165,2.194237 5.84874,-1.941484 -2.90098,-8.340084 -5.744512,-16.702038 -8.778277,-24.994857 -0.817642,-2.182953 -1.446525,-3.856282 -2.148189,-5.670455 2.074109,-4.059002 4.315739,-8.030929 6.850744,-11.826668 3.525762,-5.112261 7.209042,-10.154386 11.771372,-14.407389 0.59361,-0.528657 1.17176,-1.075727 1.78129,-1.58595 1.89468,-1.585984 3.97876,-2.875671 6.24665,-3.854028 1.55227,-0.684861 3.10743,-1.388999 4.74441,-1.848983 1.55578,-0.323928 3.12505,-0.635843 4.45037,-1.56993 4.51695,-3.776216 1.52536,-9.5419132 -2.7776,-9.8841512 z m 0.4873,23.7168982 c -6.43796,0.125576 -7.59266,9.653034 -0.46353,10.859803 0.87073,-0.025 1.71565,0.08721 2.56418,0.272851 1.63841,0.42283 3.26007,0.910835 4.86482,1.44694 1.54512,0.507235 3.00264,1.219433 4.40748,2.030884 2.0426,1.236798 3.93956,2.694732 5.78621,4.203361 1.98072,1.652576 3.78277,3.498472 5.47822,5.438428 1.82043,2.122362 3.35205,4.464705 4.78369,6.860046 1.5684,2.615889 2.74054,5.430955 3.80184,8.281665 1.09963,3.00638 2.0318,6.068997 2.89853,9.149313 0.86732,3.041286 1.58021,6.1223 2.26497,9.20874 0.7156,3.21129 1.28226,6.452349 1.82418,9.696566 0.52691,3.265836 0.95527,6.546836 1.36271,9.829376 0.37442,3.28197 0.65288,6.57405 0.84129,9.87175 0.15923,3.03337 0.14211,6.06953 0.006,9.1028 -0.13338,2.83966 -0.40993,5.66818 -0.87126,8.47287 -0.49998,2.88395 -1.3881,5.67574 -2.35593,8.43101 -1.04827,2.88825 -2.2896,5.69929 -3.75223,8.40052 -1.57014,2.73356 -3.50316,5.23524 -5.4932,7.67188 -1.97448,2.35433 -4.20497,4.47679 -6.45335,6.56498 -2.0475,1.88573 -4.15269,3.70415 -6.45336,5.27409 -0.42082,0.28194 -0.85604,0.53568 -1.28984,0.7922 -0.6073,-0.19207 -1.21945,-0.36718 -1.82418,-0.56792 -3.53342,-1.15076 -7.04206,-2.37389 -10.53837,-3.63285 -3.51042,-1.25739 -7.03221,-2.47326 -10.62519,-3.47835 -3.56928,-1.0633 -7.15704,-2.0533 -10.78539,-2.89749 -3.11063,-0.80291 -6.219098,-1.80655 -9.44232,-2.00557 -1.75561,-0.012 -3.514111,-0.0791 -5.267895,0.014 -0.962277,0.0623 -1.929808,0.0736 -2.886129,0.20102 -7.517876,1.61437 -5.234813,12.24629 2.283065,10.63191 v -5.2e-4 c -0.03399,0.001 -0.13172,0.0192 -0.101803,0.003 0.481427,-0.25989 1.254672,-0.24582 1.774052,-0.31419 1.382404,-0.26394 2.78687,-0.25499 4.187858,-0.262 2.447294,-0.0214 4.846812,0.51873 7.222812,1.0418 3.46631,0.77945 6.89864,1.69219 10.30377,2.70371 3.41786,1.04848 6.82023,2.14567 10.20196,3.30522 0.29778,0.10689 0.59814,0.20619 0.89607,0.31264 -0.85661,0.18428 -1.70905,0.38795 -2.5678,0.55914 -4.07368,0.75265 -8.19129,1.23661 -12.31346,1.62729 -4.33948,0.36014 -8.68943,0.50364 -13.042103,0.43099 -4.340757,-0.0621 -8.659311,-0.46664 -12.966133,-0.98082 -3.852973,-0.41892 -7.657313,-1.13981 -11.443746,-1.95027 -3.375316,-0.67167 -6.6638,-1.6663 -9.924459,-2.75229 -6.45231,-2.09147 -9.410269,7.03356 -2.957959,9.12503 3.614293,1.14166 7.251879,2.22631 10.98951,2.89284 4.082936,0.79643 8.181964,1.52734 12.33103,1.88361 4.589185,0.45735 9.184666,0.89595 13.801225,0.91726 4.666195,0.0958 9.322355,0.0313 13.974345,-0.39843 4.44546,-0.32186 8.86515,-0.87705 13.25965,-1.62574 4.10499,-0.71657 8.15952,-1.6629 12.16153,-2.82877 1.48155,-0.46457 2.92854,-1.00243 4.34702,-1.60248 1.45089,0.42655 2.90577,0.84023 4.36925,1.22524 3.21984,0.86538 6.5215,1.35185 9.81542,1.83245 3.03574,0.46239 6.10805,0.54812 9.17308,0.56431 2.6719,-0.007 5.34433,-0.11617 8.00365,-0.37569 2.73022,-0.26833 5.31788,-1.14033 7.83363,-2.1885 1.06286,-0.4515 2.09848,-0.96173 3.13211,-1.47536 6.4156,-3.27302 1.78694,-12.34585 -4.62866,-9.07283 -0.81185,0.42745 -1.62258,0.8582 -2.46238,1.22938 -1.59236,0.69536 -3.22293,1.30075 -4.95939,1.5167 -2.30778,0.28534 -4.6344,0.39439 -6.95772,0.46302 -2.61039,0.0376 -5.22712,-7.4e-4 -7.81761,-0.36276 -1.48774,-0.18574 -2.97597,-0.38198 -4.45657,-0.62167 0.77318,-0.68486 1.55792,-1.35549 2.30373,-2.07533 2.54277,-2.41626 5.04953,-4.88248 7.28896,-7.58765 2.33169,-2.90948 4.59146,-5.8937 6.46163,-9.12657 1.71605,-3.14382 3.21664,-6.39618 4.42557,-9.77098 1.1671,-3.28037 2.20973,-6.61089 2.85357,-10.03867 0.55078,-3.20919 0.86519,-6.44567 0.97203,-9.70121 0.12261,-3.36455 0.11913,-6.73257 -0.0868,-10.09448 -0.23109,-3.47429 -0.57529,-6.93861 -0.9431,-10.40091 -0.38714,-3.44138 -0.85961,-6.87301 -1.39165,-10.294981 -0.57019,-3.398702 -1.21271,-6.784308 -1.8929,-10.162687 -0.70534,-3.291014 -1.47172,-6.570079 -2.40451,-9.805086 -0.95904,-3.318258 -1.97772,-6.620149 -3.18998,-9.856246 -1.26846,-3.396812 -2.64448,-6.760232 -4.45916,-9.908956 -1.72224,-2.887921 -3.56091,-5.71599 -5.73402,-8.289933 -2.03374,-2.364151 -4.17118,-4.63824 -6.56756,-6.643006 -2.18198,-1.830981 -4.46259,-3.533111 -6.81509,-5.139738 -2.03796,-1.3143 -4.17487,-2.45706 -6.47764,-3.242696 -1.78061,-0.580462 -3.58519,-1.082858 -5.37435,-1.636076 -1.14942,-0.364988 -2.30077,-0.723448 -3.45508,-1.065051 -0.47528,-0.08045 -0.92783,-0.114308 -1.35703,-0.105937 z m -73.740197,2.735234 c -3.586216,0.08413 -6.945391,3.783531 -4.61884,8.264612 h 5.17e-4 c 0.292367,0.541338 0.682371,1.015636 1.062468,1.495516 4.65539,6.053263 13.216105,-0.530315 8.560717,-6.583578 -0.0099,-0.01341 -0.02589,-0.03841 -0.04031,-0.05943 -1.222233,-2.247944 -3.122752,-3.160328 -4.964555,-3.117122 z M 26.621631,72.05245 c -4.452195,-0.09797 -7.908471,5.714925 -3.441651,9.727571 0.748955,0.592728 1.593812,1.035116 2.443262,1.461926 6.706073,3.526131 11.692335,-5.958047 4.986259,-9.484175 -0.06047,-0.03375 -0.196372,-0.119368 -0.320394,-0.196371 -1.204925,-1.027836 -2.47206,-1.482647 -3.667476,-1.508951 z" />
  </g>
</svg>
